# xmcd
#
# Track frame offsets:
#	150
#	3187
#	24667
#	44640
#	49495
#	60165
#	88170
#	101865
#	127120
#	139807
#	157630
#
# Disc length: 2240 seconds
#
# Revision: 0
# Processed by: cddbd v1.5.2PL0 Copyright (c) Steve Scherf et al.
# Submitted via: EasyCDDAExtractor 16.0.1.1
#
DISCID=9008be0b
DTITLE=Norman Blake - Live At McCabe's
DYEAR=1976
DGENRE=Country
TTITLE0=Introduction By Nancy Covey
TTITLE1=Nine Pound Hammer
TTITLE2=Sweet Heaven When I Die
TTITLE3=Introducing Nancy Blake
TTITLE4=Border Widow
TTITLE5=Green Leaf Fancy+ Fields Of November+ Fort Smith
TTITLE6=Dry Grass On The High Fields
TTITLE7=John Hardy
TTITLE8=Arkansas Traveler
TTITLE9=Bully Of The Town+Bonapart's Retreat+ Richland Avenue Rag
TTITLE10=Harvey's Reel
EXTD=
EXTT0=
EXTT1=
EXTT2=
EXTT3=
EXTT4=
EXTT5=
EXTT6=
EXTT7=
EXTT8=
EXTT9=
EXTT10=
PLAYORDER=
